
<svg
  xmlns="http://www.w3.org/2000/svg"
  xmlns:xlink="http://www.w3.org/1999/xlink"
  style="position: absolute; width: 0; height: 0"
>
<!-- ITEM 1: MARVEL ICON   -->
  <defs>
    <symbol id="marvel-icon" viewBox="0 0 130 52" fill="none">
    <g clip-path="url(#clip0_12976_480)">
      <path d="M130 0.00585938H0V52.0059H130V0.00585938Z" fill="#EC1D24"/>
      <path d="M126.222 40.0649V47.9709H111.58V4.00586H119.465V40.0649H126.222ZM63.658 25.5649C63.048 25.8589 62.41 26.0049 61.788 26.0069V11.8669H61.828C62.45 11.8619 67.092 12.0509 67.092 18.8599C67.092 22.4189 65.512 24.6639 63.658 25.5649ZM40.55 34.2459L42.733 15.4469L44.998 34.2459H40.55ZM110.205 12.0309V4.01286H87.879L84.204 30.7919L80.574 4.01186H72.522L73.423 11.1619C72.495 9.32986 69.199 4.01186 61.943 4.01186C61.896 4.00986 53.883 4.01186 53.883 4.01186L53.852 43.0439L47.984 4.01286L37.439 4.00786L31.367 44.4479L31.369 4.01286H21.278L17.64 26.7299L14.096 4.01186H4V47.9779H11.95V26.7859L15.568 47.9779H19.794L23.359 26.7859V47.9779H38.686L39.614 41.2159H45.784L46.711 47.9779L61.758 47.9859H61.768V47.9779H61.788V33.7079L63.633 33.4379L67.45 47.9879H75.234L75.232 47.9779H75.254L70.243 30.9299C72.781 29.0499 75.649 24.2859 74.886 19.7269V19.7249C74.894 19.7829 79.615 48.0059 79.615 48.0059L88.871 47.9789L95.198 8.12886V47.9789H110.205V40.0709H103.081V29.9909H110.205V21.9609H103.081V12.0299L110.205 12.0309Z" fill="#FEFEFE"/>
      <path d="M0 0.00585938H30V52.0059H0V0.00585938Z" fill="#EC1D24"/>
      <path d="M31.5 48.0059V4.00586H21.291L17.651 26.7409L14.102 4.00586H4V48.0059H12V26.7979L15.577 48.0059H19.806L23.374 26.7979V48.0059H31.5Z" fill="#FEFEFE"/>
    </g>

<!-- ITEM 2: HEART ICON LIKED  -->
    <symbol id="heart-icon-liked" viewBox="0 0 24 22" fill="none">
      <path fill-rule="evenodd" clip-rule="evenodd" d="M12 3.80933L6 0.167709L0 3.80933V11.6128L12 21.844L24 11.6128V3.80933L18 0.167709L12 3.80933Z" fill="#EC1D24"/>
    </symbol>

<!-- ITEM 3: HEART ICON UNLIKED DETAIL -->
    <symbol id="heart-icon-unliked" viewBox="0 0 26 25" fill="none">
      <path d="M7 1.17041L7.51885 0.315544L7 0.000635982L6.48115 0.315544L7 1.17041ZM13 4.81203L12.4812 5.66689L13 5.9818L13.5188 5.66689L13 4.81203ZM1 4.81203L0.481151 3.95716L0 4.24919V4.81203H1ZM1 12.6155H0V13.077L0.351203 13.3765L1 12.6155ZM13 22.8467L12.3512 23.6077L13 24.1608L13.6488 23.6077L13 22.8467ZM25 12.6155L25.6488 13.3765L26 13.077V12.6155H25ZM25 4.81203H26V4.24919L25.5188 3.95716L25 4.81203ZM19 1.17041L19.5189 0.315544L19 0.000635982L18.4812 0.315544L19 1.17041ZM6.48115 2.02528L12.4812 5.66689L13.5188 3.95716L7.51885 0.315544L6.48115 2.02528ZM1.51885 5.66689L7.51885 2.02528L6.48115 0.315544L0.481151 3.95716L1.51885 5.66689ZM2 12.6155V4.81203H0V12.6155H2ZM13.6488 22.0857L1.6488 11.8545L0.351203 13.3765L12.3512 23.6077L13.6488 22.0857ZM13.6488 23.6077L25.6488 13.3765L24.3512 11.8545L12.3512 22.0857L13.6488 23.6077ZM26 12.6155V4.81203H24V12.6155H26ZM25.5188 3.95716L19.5189 0.315544L18.4812 2.02528L24.4812 5.66689L25.5188 3.95716ZM18.4812 0.315544L12.4812 3.95716L13.5188 5.66689L19.5189 2.02528L18.4812 0.315544Z" fill="white"/>
    </symbol>

<!-- ITEM 4: HEART ICON UNLIKED HOMEPAGE -->
    <symbol id="heart-icon-unliked-home" viewBox="0 0 14 14" fill="none">
      <path d="M4 1.64453L4.51885 0.789665L4 0.474757L3.48115 0.789666L4 1.64453ZM7 3.46534L6.48115 4.32021L7 4.63511L7.51885 4.32021L7 3.46534ZM1 3.46534L0.481151 2.61047L0 2.9025V3.46534H1ZM1 7.36707H0V7.8286L0.351203 8.12804L1 7.36707ZM7 12.4827L6.3512 13.2436L7 13.7968L7.6488 13.2436L7 12.4827ZM13 7.36707L13.6488 8.12804L14 7.8286V7.36707H13ZM13 3.46534H14V2.9025L13.5188 2.61047L13 3.46534ZM10 1.64453L10.5189 0.789666L10 0.474757L9.48115 0.789665L10 1.64453ZM3.48115 2.4994L6.48115 4.32021L7.51885 2.61047L4.51885 0.789665L3.48115 2.4994ZM1.51885 4.32021L4.51885 2.4994L3.48115 0.789666L0.481151 2.61047L1.51885 4.32021ZM2 7.36707V3.46534H0V7.36707H2ZM7.6488 11.7217L1.6488 6.60611L0.351203 8.12804L6.3512 13.2436L7.6488 11.7217ZM7.6488 13.2436L13.6488 8.12804L12.3512 6.60611L6.3512 11.7217L7.6488 13.2436ZM14 7.36707V3.46534H12V7.36707H14ZM13.5188 2.61047L10.5189 0.789666L9.48115 2.4994L12.4812 4.32021L13.5188 2.61047ZM9.48115 0.789665L6.48115 2.61047L7.51885 4.32021L10.5189 2.4994L9.48115 0.789665Z" fill="white"/>
    </symbol>


  <!-- ITEM 5: SEARCH ICON   -->
    <symbol id="search-icon" viewBox="0 0 13 13" fill="none">
      <path d="M11.9062 11.1123C12.0234 11.2295 12.0234 11.417 11.9062 11.5107L11.3672 12.0498C11.2734 12.167 11.0859 12.167 10.9688 12.0498L8.13281 9.21387C8.08594 9.14355 8.0625 9.07324 8.0625 9.00293V8.69824C7.19531 9.4248 6.09375 9.87012 4.875 9.87012C2.17969 9.87012 0 7.69043 0 4.99512C0 2.32324 2.17969 0.120117 4.875 0.120117C7.54688 0.120117 9.75 2.32324 9.75 4.99512C9.75 6.21387 9.28125 7.33887 8.55469 8.18262H8.85938C8.92969 8.18262 9 8.22949 9.07031 8.27637L11.9062 11.1123ZM4.875 8.74512C6.9375 8.74512 8.625 7.08105 8.625 4.99512C8.625 2.93262 6.9375 1.24512 4.875 1.24512C2.78906 1.24512 1.125 2.93262 1.125 4.99512C1.125 7.08105 2.78906 8.74512 4.875 8.74512Z" fill="black"/>
      </symbol>
  </defs>

</svg>